<?xml version="1.0" standalone="no"?>
<!DOCTYPE svg PUBLIC "-//W3C//DTD SVG 1.1//EN" "http://www.w3.org/Graphics/SVG/1.1/DTD/svg11.dtd">
<svg t="1633701596386" class="icon" viewBox="0 0 1024 1024" version="1.1" xmlns="http://www.w3.org/2000/svg"
  p-id="13849" xmlns:xlink="http://www.w3.org/1999/xlink" width="200" height="200">
  <defs>
    <style type="text/css"></style>
  </defs>
  <path
    d="M670.625252 838.803068 611.790262 821.247226 661.215952 655.603629 417.758104 533.584598 356.330056 335.437725 232.972541 215.016075 275.86135 171.081447 410.363693 302.381865 468.656331 490.415402 734.780411 623.795179Z"
    p-id="13850"></path>
  <path
    d="M782.443967 987.346195c-0.008186 0-0.005117 0-0.013303 0-38.623669-0.001023-86.199221-2.934842-141.28891-6.332219-38.183647-2.354628-81.462337-5.02341-129.61094-7.230682-117.497041-5.385661-198.856024-39.278585-241.814418-100.739379-22.526039-32.226982-34.007535-72.424496-33.20424-116.247584 0.554632-30.238698 6.698562-52.385091 7.936763-56.558134 15.854083-89.041966-2.287089-151.072741-20.324908-187.454346-19.570731-39.47506-43.267433-58.20054-43.50484-58.385758l-0.562818-0.468674c-56.882522-50.919716-99.243305-99.918687-125.903501-145.634892-26.727735-45.833885-37.863353-88.643899-33.098839-127.241986 6.435573-52.126194 41.000809-95.031377 102.735849-127.523395C160.270728 34.328853 200.57262 24.593118 243.576039 24.593118c94.371344 0 184.100972 46.245254 243.476267 76.847226 10.648524 5.487991 20.706601 10.67206 29.388331 14.854313 78.766948 37.945217 126.945227 188.485839 129.860626 197.806111 11.535731 31.717376 18.648732 49.349965 25.450648 57.647955 5.250584 6.404873 10.416234 7.733125 25.954115 10.964726 22.994714 4.782933 61.480236 12.788258 134.185118 53.105498 83.22447 46.152133 128.064724 96.885608 145.391345 164.501588 16.232706 63.348794 7.024997 138.953725-6.697539 231.208872-9.617032 64.648392-26.137287 102.052281-55.240115 125.068484C887.733988 978.437292 849.220836 987.346195 782.443967 987.346195zM193.467805 438.465217c3.328815 2.651386 27.783787 22.995737 48.41364 64.065108 12.630668 25.145703 21.278629 52.999075 25.704428 82.783425 5.494131 36.987403 4.453429 77.066213-3.095501 119.123075l-0.115634 0.642636-0.195451 0.621147c-0.063445 0.203638-6.759961 22.01234-7.214309 52.181453-0.599657 39.826054 9.375531 74.682933 29.647227 103.604636 39.163975 55.873542 115.15367 86.775342 225.856981 91.849918 48.310286 2.213411 91.673909 4.888334 129.934305 7.248078 57.008388 3.51608 102.035908 6.29231 140.02922 6.293333 0.004093 0 0.010233 0 0.013303 0 61.730946 0 96.556103-7.628748 120.205733-26.332738 24.648376-19.491936 38.910195-52.996005 47.691185-112.027469 13.379729-89.939405 22.399149-163.477258 7.116071-223.116567-15.812127-61.708434-57.598836-108.4899-135.490857-151.683654-69.989027-38.810934-106.571201-46.420239-128.427998-50.966789-15.981996-3.324722-27.530007-5.726421-37.614689-18.027585-8.795317-10.728342-16.035208-28.369118-28.937053-63.85226l-0.155543-0.460488c-0.468674-1.508353-47.720861-151.207817-119.272477-185.677886-8.930393-4.301979-19.107173-9.547447-29.882588-15.099906C420.057473 89.936335 332.983325 45.059242 243.576039 45.059242c-39.647999 0-76.742848 8.942673-110.253056 26.580379-55.45194 29.185716-86.390579 66.840314-91.955318 111.920022C32.7371 253.465782 85.329922 341.605192 193.467805 438.465217z"
    p-id="13851"></path>
</svg>
