<?xml version="1.0" standalone="no"?>
<!DOCTYPE svg PUBLIC "-//W3C//DTD SVG 1.1//EN" "http://www.w3.org/Graphics/SVG/1.1/DTD/svg11.dtd">
<svg t="1632619490843" class="icon" viewBox="0 0 1024 1024" version="1.1" xmlns="http://www.w3.org/2000/svg" p-id="2982"
  xmlns:xlink="http://www.w3.org/1999/xlink" width="200" height="200">
  <defs>
    <style type="text/css"></style>
  </defs>
  <path
    d="M0 192v704h1024V192H0z m384 448v-128h256v128h-256z m256 64v128h-256v-128h256z m0-384v128h-256v-128h256z m-320 0v128H64v-128h256z m-256 192h256v128H64v-128z m640 0h256v128h-256v-128z m0-64v-128h256v128h-256zM64 704h256v128H64v-128z m640 128v-128h256v128h-256z"
    p-id="2983"></path>
</svg>
