<?xml version="1.0" encoding="UTF-8" standalone="no"?>
<svg
   id="图层_1"
   data-name="图层 1"
   viewBox="0 0 135.07 142.02"
   version="1.1"
   sodipodi:docname="南京师范大学.svg"
   inkscape:version="1.1 (c68e22c387, 2021-05-23)"
   width="135.07001"
   height="142.02"
   xmlns:inkscape="http://www.inkscape.org/namespaces/inkscape"
   xmlns:sodipodi="http://sodipodi.sourceforge.net/DTD/sodipodi-0.dtd"
   xmlns="http://www.w3.org/2000/svg"
   xmlns:svg="http://www.w3.org/2000/svg">
  <sodipodi:namedview
     id="namedview449"
     pagecolor="#ffffff"
     bordercolor="#666666"
     borderopacity="1.0"
     inkscape:pageshadow="2"
     inkscape:pageopacity="0.0"
     inkscape:pagecheckerboard="0"
     showgrid="false"
     inkscape:zoom="1.1823731"
     inkscape:cx="354.79494"
     inkscape:cy="0"
     inkscape:window-width="1920"
     inkscape:window-height="1147"
     inkscape:window-x="3832"
     inkscape:window-y="-8"
     inkscape:window-maximized="1"
     inkscape:current-layer="图层_1" />
  <defs
     id="defs232">
    <style
       id="style230">.cls-1{fill:#00633d;}.cls-2{fill:none;stroke:#fff;stroke-miterlimit:22.93;}.cls-3{fill:#fff;}</style>
  </defs>
  <path
     class="cls-1"
     d="m 67.42,0 h 27 c 22.36,0 40.65,20 40.65,44.58 v 52.87 c 0,24.54 -18.29,44.57 -40.65,44.57 h -27 v -19.76 h 16.49 c 15.82,0 30.27,-18 30.27,-32 V 52.39 c 0,-15.57 -15.76,-32 -31.19,-32 H 67.42 Z M 40.31,0 C 17.95,0 0,20 0,44.58 v 52.87 c 0,24.54 18,44.57 40.31,44.57 H 67.42 V 122.26 H 52.97 c -15.33,0 -32.35,-14.36 -32.35,-32 V 52.39 c 0,-16.25 16.44,-32 30.51,-32 H 67.42 V 0 Z"
     id="path322" />
  <path
     class="cls-1"
     d="m 58.84,51.66 v 6.94 h -1.85 v -4.51 a 4.51,4.51 0 0 1 -0.87,0.53 8.24,8.24 0 0 1 -1.06,0.43 V 53.5 a 3.85,3.85 0 0 0 1.45,-0.73 3.06,3.06 0 0 0 0.82,-1.11 z"
     id="path324" />
  <path
     class="cls-1"
     d="m 63.98,57.58 a 0.72,0.72 0 0 0 0.68,-0.49 3.3,3.3 0 0 0 0.29,-1.41 2.89,2.89 0 0 1 -0.68,0.49 0.67,0.67 0 0 1 -0.29,0.1 v -1.12 a 0.74,0.74 0 0 0 0.63,-0.29 1.08,1.08 0 0 0 0.29,-0.82 1.41,1.41 0 0 0 -0.29,-0.88 0.8,0.8 0 0 0 -0.63,-0.29 v -1.21 a 3.18,3.18 0 0 1 1.5,0.39 2.2,2.2 0 0 1 1,1.11 4.51,4.51 0 0 1 0.34,2 4.12,4.12 0 0 1 -0.73,2.72 2.67,2.67 0 0 1 -2.08,0.87 v -1.16 z m -2.47,-0.49 a 2.45,2.45 0 0 0 0.48,0.87 2.11,2.11 0 0 0 0.73,0.59 4.52,4.52 0 0 0 1.26,0.19 v -1.16 a 0.44,0.44 0 0 1 -0.39,-0.2 C 63.44,57.29 63.4,57.09 63.35,56.85 Z m 2.47,-0.82 v -1.12 a 0.86,0.86 0 0 1 -0.63,-0.29 1.39,1.39 0 0 1 -0.24,-0.87 1.28,1.28 0 0 1 0.24,-0.83 0.79,0.79 0 0 1 0.63,-0.29 v -1.21 h -0.1 a 3,3 0 0 0 -1.36,0.29 2,2 0 0 0 -0.82,0.87 2.59,2.59 0 0 0 -0.34,1.22 2.37,2.37 0 0 0 0.63,1.64 2,2 0 0 0 1.5,0.68 1.43,1.43 0 0 0 0.49,-0.09 z"
     id="path326" />
  <path
     class="cls-1"
     d="m 70.82,51.66 h 0.05 a 3.41,3.41 0 0 1 1.06,0.19 1.83,1.83 0 0 1 0.73,0.44 3.93,3.93 0 0 1 0.39,0.58 3.4,3.4 0 0 1 0.24,0.68 5.9,5.9 0 0 1 0.2,1.6 4.9,4.9 0 0 1 -0.59,2.72 2.4,2.4 0 0 1 -2.08,0.87 v -1.31 a 0.63,0.63 0 0 0 0.48,-0.19 2.34,2.34 0 0 0 0.29,-0.63 8.51,8.51 0 0 0 0.1,-1.36 4.94,4.94 0 0 0 -0.24,-1.84 0.8,0.8 0 0 0 -0.63,-0.49 z m -2.67,3.49 a 6.62,6.62 0 0 0 0.15,1.46 3.13,3.13 0 0 0 0.39,1 1.88,1.88 0 0 0 0.82,0.83 2.75,2.75 0 0 0 1.36,0.29 v -1.31 a 0.7,0.7 0 0 1 -0.68,-0.48 4.79,4.79 0 0 1 -0.2,-1.75 5,5 0 0 1 0.2,-1.79 0.71,0.71 0 0 1 0.63,-0.49 v 0 -1.25 a 2.9,2.9 0 0 0 -2,0.78 4.31,4.31 0 0 0 -0.68,2.71 z"
     id="path328" />
  <path
     class="cls-1"
     d="m 80.23,58.6 h -5.48 a 3.76,3.76 0 0 1 0.53,-1.56 6.91,6.91 0 0 1 1.79,-1.74 4.82,4.82 0 0 0 1,-1 0.77,0.77 0 0 0 0.25,-0.59 0.65,0.65 0 0 0 -0.2,-0.53 0.91,0.91 0 0 0 -0.58,-0.24 0.81,0.81 0 0 0 -0.58,0.24 1.45,1.45 0 0 0 -0.29,0.78 l -1.85,-0.15 a 4.77,4.77 0 0 1 0.39,-1.21 2.14,2.14 0 0 1 0.82,-0.73 4,4 0 0 1 1.46,-0.24 4.24,4.24 0 0 1 1.51,0.24 1.75,1.75 0 0 1 0.82,0.73 1.86,1.86 0 0 1 0.34,1 2.26,2.26 0 0 1 -0.39,1.21 4.22,4.22 0 0 1 -1.26,1.26 5.15,5.15 0 0 0 -0.73,0.53 3.79,3.79 0 0 0 -0.43,0.39 h 2.86 z"
     id="path330" />
  <path
     class="cls-1"
     d="m 70.53,31.34 a 2.08,2.08 0 0 1 0.53,1.4 1.94,1.94 0 0 1 -1.89,2 1.68,1.68 0 0 1 -1.65,-1 v -2.48 a 0.84,0.84 0 0 0 0.92,-0.92 0.88,0.88 0 0 0 -0.92,-1 v -4.32 a 1.94,1.94 0 0 1 1.84,2 2.28,2.28 0 0 1 -0.05,0.58 1.88,1.88 0 0 1 1,-0.34 2.0024984,2.0024984 0 0 1 0.2,4 z m -3,2.37 v -2.45 a 0.92,0.92 0 0 1 -1,-1 0.84,0.84 0 0 1 0.92,-0.92 h 0.05 v -4.32 a 2,2 0 0 0 -1.94,2 1.42,1.42 0 0 0 0,0.48 2,2 0 0 0 -1.07,-0.34 2,2 0 0 0 -1.89,2 2,2 0 0 0 1.65,2 2.12,2.12 0 0 0 -0.63,1.5 2,2 0 0 0 1.94,2 2,2 0 0 0 1.79,-1.26 c 0,0.1 0,0.15 0.1,0.24 z"
     id="path332" />
  <path
     class="cls-2"
     d="m 70.53,31.34 a 2.08,2.08 0 0 1 0.53,1.4 1.94,1.94 0 0 1 -1.89,2 1.79,1.79 0 0 1 -1.75,-1.26 2,2 0 0 1 -1.79,1.26 2,2 0 0 1 -1.94,-2 2.12,2.12 0 0 1 0.63,-1.5 2,2 0 0 1 -1.65,-2 2,2 0 0 1 1.89,-2 2,2 0 0 1 1.07,0.34 1.42,1.42 0 0 1 0,-0.48 1.89,1.89 0 1 1 3.78,0 2.28,2.28 0 0 1 -0.05,0.58 1.88,1.88 0 0 1 1,-0.34 2.0024984,2.0024984 0 0 1 0.2,4 z M 67.47,29.4 v 0 a 0.92,0.92 0 0 1 1,1 0.84,0.84 0 0 1 -0.92,0.92 0.92,0.92 0 0 1 -1,-1 0.84,0.84 0 0 1 0.92,-0.92 z"
     id="path334" />
  <path
     class="cls-1"
     d="m 29.06,67.57 h 14.21 a 15.61,15.61 0 0 0 7.42,6.5 v 2.91 h -21.2 c -2.86,0 -5.19,-2.67 -6.89,-4.81 2.48,0.25 4.76,-0.09 6.46,-1.6 z"
     id="path336" />
  <path
     class="cls-1"
     d="M 105.69,67.57 H 91.48 a 15.65,15.65 0 0 1 -7.42,6.5 v 2.91 h 21.2 c 2.86,0 5.23,-2.67 6.93,-4.81 -2.47,0.25 -4.75,-0.09 -6.45,-1.6 z"
     id="path338" />
  <rect
     class="cls-1"
     x="52.09"
     y="74.449997"
     width="30.700001"
     height="1.21"
     id="rect340" />
  <rect
     class="cls-1"
     x="29.1"
     y="78.43"
     width="21.58"
     height="1.21"
     id="rect342" />
  <rect
     class="cls-1"
     x="84.059998"
     y="78.43"
     width="21.629999"
     height="1.21"
     id="rect344" />
  <rect
     class="cls-1"
     x="29.1"
     y="81"
     width="6.21"
     height="2.3299999"
     id="rect346" />
  <rect
     class="cls-1"
     x="29.1"
     y="84.879997"
     width="6.21"
     height="2.3299999"
     id="rect348" />
  <rect
     class="cls-1"
     x="29.1"
     y="88.809998"
     width="6.21"
     height="3.6400001"
     id="rect350" />
  <rect
     class="cls-1"
     x="36.52"
     y="81"
     width="6.21"
     height="11.45"
     id="rect352" />
  <rect
     class="cls-1"
     x="44.529999"
     y="81"
     width="6.1599998"
     height="11.45"
     id="rect354" />
  <rect
     class="cls-1"
     x="99.480003"
     y="81"
     width="6.21"
     height="2.3299999"
     id="rect356" />
  <rect
     class="cls-1"
     x="99.480003"
     y="84.879997"
     width="6.21"
     height="2.3299999"
     id="rect358" />
  <rect
     class="cls-1"
     x="99.480003"
     y="88.809998"
     width="6.21"
     height="3.6400001"
     id="rect360" />
  <rect
     class="cls-1"
     x="92.059998"
     y="81"
     width="6.1599998"
     height="11.45"
     id="rect362" />
  <rect
     class="cls-1"
     x="84.059998"
     y="81"
     width="6.21"
     height="11.45"
     id="rect364" />
  <path
     class="cls-1"
     d="m 52.15,76.93 h 7.76 v 3 c -0.15,1.59 -1.46,2.18 -3.2,2.37 0.29,2 1.45,2.57 3.2,3 v 7.13 h -7.76 z"
     id="path366" />
  <path
     class="cls-1"
     d="m 82.8,76.93 h -7.81 v 3 c 0.19,1.59 1.45,2.18 3.25,2.37 -0.29,2 -1.46,2.57 -3.25,3 v 7.13 h 7.81 z"
     id="path368" />
  <rect
     class="cls-1"
     x="61.310001"
     y="76.970001"
     width="12.27"
     height="2.8599999"
     id="rect370" />
  <path
     class="cls-1"
     d="m 60.97,81.2 h 13 l 2.18,1.94 a 3.8,3.8 0 0 1 -1.94,0.58 l -13.48,0.1 a 4,4 0 0 1 -1.94,-0.54 z"
     id="path372" />
  <rect
     class="cls-1"
     x="61.310001"
     y="85.269997"
     width="2.1300001"
     height="7.52"
     id="rect374" />
  <rect
     class="cls-1"
     x="64.949997"
     y="85.269997"
     width="4.9899998"
     height="7.52"
     id="rect376" />
  <rect
     class="cls-1"
     x="71.440002"
     y="85.269997"
     width="2.1300001"
     height="7.52"
     id="rect378" />
  <path
     class="cls-1"
     d="m 45.01,67.57 h 7.43 v -4.8 h 29.71 v 4.8 h 7.76 C 88.11,69.9 86.27,73 82.2,73 H 53.06 c -4.21,0 -6.49,-2.86 -8.05,-5.43 z"
     id="path380" />
  <polygon
     class="cls-3"
     points="61.02,128.87 62.23,133.29 63.49,128.87 65.53,128.87 65.53,135.32 64.27,135.32 64.27,130.28 62.91,135.32 61.55,135.32 60.19,130.28 60.19,135.32 58.93,135.32 58.93,128.87 "
     id="polygon382" />
  <path
     class="cls-3"
     d="m 75.77,135.32 h -1.51 l -0.63,-1.45 h -1.4 v -1.07 h 1 l -1,-2.37 v -1.55 H 73 Z m -3.54,-1.45 v -1.07 h -1 l 1,-2.42 v -1.5 H 71.5 l -2.72,6.44 h 1.46 l 0.58,-1.45 z"
     id="path384" />
  <polygon
     class="cls-3"
     points="80.17,128.92 80.17,134.25 83.86,134.25 83.86,135.32 78.67,135.32 78.67,128.92 "
     id="polygon386" />
  <path
     class="cls-3"
     d="m 52.29,128.39 h 0.15 a 4.87,4.87 0 0 1 1.64,0.19 1.4,1.4 0 0 1 0.83,0.63 1.84,1.84 0 0 1 0.34,1 1.69,1.69 0 0 1 -0.49,1.21 2.08,2.08 0 0 1 -1.4,0.58 c 0.29,0.19 0.53,0.34 0.77,0.53 0.24,0.19 0.44,0.58 0.83,1.07 l 0.87,1.26 h -1.75 l -1.06,-1.41 a 4.91,4.91 0 0 0 -0.73,-0.92 v -1.4 a 3.36,3.36 0 0 0 0.87,-0.05 0.73,0.73 0 0 0 0.44,-0.29 0.81,0.81 0 0 0 0.14,-0.49 0.7,0.7 0 0 0 -0.19,-0.53 1.73,1.73 0 0 0 -0.53,-0.25 h -0.73 v -1.11 z m -2.91,6.45 h 1.46 v -2.67 h 0.31 a 2.87,2.87 0 0 1 0.72,0 1.24,1.24 0 0 1 0.44,0.29 v -1.4 h -1.45 v -1.61 h 1.45 v -1.11 H 49.4 v 6.45 z"
     id="path388" />
  <path
     class="cls-3"
     d="m 42.49,127.52 a 1,1 0 0 1 0.34,0 3.37,3.37 0 0 1 2.38,1.12 3.82,3.82 0 0 1 -0.58,4.95 3,3 0 0 1 -2.14,0.68 v -1.12 a 1.71,1.71 0 0 0 1.17,-0.44 2.59,2.59 0 0 0 0.72,-1.64 2.16,2.16 0 0 0 -0.34,-1.75 1.73,1.73 0 0 0 -1.31,-0.68 2.42,2.42 0 0 1 -0.24,-0.05 v -1.11 z m -3.39,3.1 a 3.27,3.27 0 0 0 0.63,2.52 3.51,3.51 0 0 0 2.38,1.17 h 0.38 v -1.12 a 0.61,0.61 0 0 1 -0.29,-0.05 1.94,1.94 0 0 1 -1.31,-0.68 3,3 0 0 1 0.39,-3.39 2.07,2.07 0 0 1 1.21,-0.44 v -1.11 a 4.15,4.15 0 0 0 -1.16,0.14 2.7,2.7 0 0 0 -1,0.49 2.87,2.87 0 0 0 -0.73,0.82 3.82,3.82 0 0 0 -0.53,1.65 z"
     id="path390" />
  <polygon
     class="cls-3"
     points="33.08,124.8 33.81,129.99 35.7,126.11 36.91,126.74 34.05,132.46 32.74,131.83 32.01,126.78 30.17,130.57 28.96,129.94 31.82,124.22 "
     id="polygon392" />
  <path
     class="cls-3"
     d="m 20.81,119.81 0.87,-0.68 2,2.47 -2,1.55 a 3.82,3.82 0 0 1 -1.36,-0.58 4.62,4.62 0 0 1 -1.31,-1.21 3.94,3.94 0 0 1 -0.87,-1.8 2.64,2.64 0 0 1 0.19,-1.74 3.66,3.66 0 0 1 1.07,-1.41 4,4 0 0 1 1.7,-0.73 3.53,3.53 0 0 1 3.05,1.58 3.63,3.63 0 0 1 0.87,1.93 2.17,2.17 0 0 1 -0.48,1.61 l -1.07,-1 a 1.55,1.55 0 0 0 0.24,-0.93 2,2 0 0 0 -0.43,-1 1.89,1.89 0 0 0 -1.36,-0.87 2.06,2.06 0 0 0 -1.6,0.53 2.69,2.69 0 0 0 -1,1.51 2,2 0 0 0 0.48,1.5 2.28,2.28 0 0 0 0.68,0.63 3.34,3.34 0 0 0 0.78,0.39 l 0.63,-0.49 z"
     id="path394" />
  <polygon
     class="cls-3"
     points="17.9,108.06 15.52,112.72 19.3,110.68 19.93,111.85 14.26,114.9 13.58,113.64 15.91,109.08 12.22,111.07 11.54,109.91 17.22,106.85 "
     id="polygon396" />
  <polygon
     class="cls-3"
     points="16.1,103.8 10.14,106.17 9.6,104.86 15.57,102.44 "
     id="polygon398" />
  <path
     class="cls-3"
     d="m 14.15,98.08 0.19,1.4 -4,0.58 a 3.76,3.76 0 0 1 -1.27,0.05 1.81,1.81 0 0 1 -1,-0.63 2.46,2.46 0 0 1 -0.53,-1.4 2,2 0 0 1 0.29,-1.7 2,2 0 0 1 1.46,-0.78 l 0.34,1.31 a 3,3 0 0 0 -0.78,0.29 0.87,0.87 0 0 0 -0.24,0.78 1,1 0 0 0 0.34,0.63 1.77,1.77 0 0 0 1.06,0 z"
     id="path400" />
  <polygon
     class="cls-3"
     points="13.68,87.64 9.41,90.56 13.68,90.56 13.68,91.91 7.28,91.91 7.28,90.46 11.45,87.6 7.28,87.6 7.28,86.24 13.68,86.24 "
     id="polygon402" />
  <path
     class="cls-3"
     d="m 10.87,78.05 2.67,1.21 v 1.55 l -2.67,1.16 v -1.45 l 1.21,-0.49 -1.21,-0.48 V 78.1 Z m -3.72,5.57 3.74,-1.7 v -1.45 l -1.21,0.49 v -1.95 l 1.21,0.49 v -1.45 l -3.74,-1.6 v 1.5 l 1.46,0.58 v 2.86 l -1.46,0.63 z"
     id="path404" />
  <polygon
     class="cls-3"
     points="13.68,69.07 9.41,71.93 13.68,71.93 13.68,73.29 7.28,73.29 7.28,71.83 11.45,68.97 7.28,68.97 7.28,67.66 13.68,67.66 "
     id="polygon406" />
  <path
     class="cls-3"
     d="m 91.29,127.37 1.45,-0.1 0.29,3.5 a 4.07,4.07 0 0 0 0.1,1.06 1.26,1.26 0 0 0 0.53,0.59 2,2 0 0 0 1,0.19 2.37,2.37 0 0 0 1,-0.29 1.18,1.18 0 0 0 0.34,-0.58 10.4,10.4 0 0 0 0,-1.12 l -0.24,-3.54 1.51,-0.1 0.24,3.35 a 8.73,8.73 0 0 1 0,1.65 1.65,1.65 0 0 1 -0.39,0.82 2.19,2.19 0 0 1 -0.82,0.59 3.94,3.94 0 0 1 -1.41,0.29 3.75,3.75 0 0 1 -1.6,-0.1 1.9,1.9 0 0 1 -0.93,-0.49 1.61,1.61 0 0 1 -0.48,-0.67 8,8 0 0 1 -0.24,-1.61 z"
     id="path408" />
  <polygon
     class="cls-3"
     points="101.52,126.06 105.98,128.82 104.33,124.89 105.59,124.36 108.06,130.28 106.71,130.86 102.34,128.14 103.99,132.03 102.68,132.56 100.21,126.59 "
     id="polygon410" />
  <polygon
     class="cls-3"
     points="108.79,121.45 113.01,126.35 111.89,127.32 107.67,122.42 "
     id="polygon412" />
  <polygon
     class="cls-3"
     points="111.56,118.88 116.46,120.33 113.84,115.97 114.81,114.76 118.25,120.77 117.28,122.03 110.59,120.14 "
     id="polygon414" />
  <polygon
     class="cls-3"
     points="118.35,107.72 119.32,108.21 117.62,111.8 118.93,112.43 120.48,109.08 121.45,109.52 119.9,112.86 121.5,113.64 123.25,109.91 124.21,110.34 121.84,115.44 116.02,112.67 "
     id="polygon416" />
  <path
     class="cls-3"
     d="m 125.72,106.42 -4.12,-0.63 v -1.53 l 0.68,0.1 0.14,-1.07 a 5.08,5.08 0 0 0 0.1,-1.35 0.75,0.75 0 0 0 -0.63,-0.68 H 121.6 V 99.7 a 1.32,1.32 0 0 1 0.44,0.05 1.72,1.72 0 0 1 1.11,0.64 2.39,2.39 0 0 1 0.34,1.55 4.42,4.42 0 0 1 0.66,-0.68 4.84,4.84 0 0 1 1.16,-0.68 l 1.36,-0.73 -0.29,1.8 -1.5,0.82 a 6.54,6.54 0 0 0 -1.07,0.68 1.43,1.43 0 0 0 -0.34,0.39 3.64,3.64 0 0 0 -0.19,0.73 l -0.05,0.29 2.67,0.39 -0.2,1.5 z m -4.12,-0.63 v -1.53 l -1,-0.14 0.19,-1.17 a 9.22,9.22 0 0 0 0.15,-1.06 1,1 0 0 1 0.34,-0.49 1,1 0 0 1 0.29,-0.14 V 99.7 a 2.33,2.33 0 0 0 -0.63,0.2 1.58,1.58 0 0 0 -0.73,0.78 4.5,4.5 0 0 0 -0.43,1.64 l -0.49,3.11 2.28,0.34 z"
     id="path418" />
  <path
     class="cls-3"
     d="m 125.43,96.67 -0.14,-1.45 a 1.31,1.31 0 0 0 0.87,-0.59 1.76,1.76 0 0 0 0.29,-1.06 2.66,2.66 0 0 0 -0.29,-1.07 0.84,0.84 0 0 0 -0.68,-0.34 0.43,0.43 0 0 0 -0.34,0.15 c -0.14,0.09 -0.19,0.28 -0.29,0.53 -0.1,0.25 -0.1,0.58 -0.24,1.21 a 4.38,4.38 0 0 1 -0.58,1.7 1.43,1.43 0 0 1 -1.27,0.72 1.38,1.38 0 0 1 -0.92,-0.28 1.86,1.86 0 0 1 -0.68,-0.88 5.79,5.79 0 0 1 -0.29,-1.45 3.57,3.57 0 0 1 0.49,-2.09 1.76,1.76 0 0 1 1.36,-0.82 l 0.14,1.5 a 1.39,1.39 0 0 0 -0.73,0.43 1.81,1.81 0 0 0 -0.19,1 2.23,2.23 0 0 0 0.29,1 0.4,0.4 0 0 0 0.39,0.24 0.45,0.45 0 0 0 0.39,-0.24 3.46,3.46 0 0 0 0.39,-1.36 10.63,10.63 0 0 1 0.38,-1.65 3.12,3.12 0 0 1 0.63,-0.83 1.85,1.85 0 0 1 1,-0.33 1.76,1.76 0 0 1 1.07,0.33 1.8,1.8 0 0 1 0.73,0.93 4,4 0 0 1 0.29,1.6 3.24,3.24 0 0 1 -0.49,2.18 2.31,2.31 0 0 1 -1.58,0.92 z"
     id="path420" />
  <polygon
     class="cls-3"
     points="121.21,85.9 127.61,85.95 127.61,87.4 121.16,87.4 "
     id="polygon422" />
  <polygon
     class="cls-3"
     points="122.03,83.04 120.97,83.04 120.97,77.17 122.08,77.17 122.03,79.35 127.42,79.4 127.42,80.9 122.03,80.85 "
     id="polygon424" />
  <polygon
     class="cls-3"
     points="121.06,75.03 121.06,73.29 123.58,71.59 121.06,69.94 121.06,68.2 124.8,70.96 127.52,70.96 127.47,72.37 124.8,72.37 "
     id="polygon426" />
  <path
     class="cls-3"
     d="m 17.71,37.5 0.48,0.34 c 0.25,0.14 0.44,0 0.63,-0.2 0.19,-0.2 0.15,-0.53 -0.1,-0.68 l -1,-0.68 v 1.22 z m 0,-12.27 v 0 l 0.09,0.09 5,3.35 a 0.35,0.35 0 0 1 0.15,0.48 4.69,4.69 0 0 1 -0.88,1 0.54,0.54 0 0 0 0,0.73 0.48,0.48 0 0 0 0.68,0 4.52,4.52 0 0 0 1.4,-1.87 C 24.24,28.62 24,28.23 23.42,27.89 l -5.27,-3.63 a 2.76,2.76 0 0 0 -0.44,-0.24 v 1.24 z m 0,8.53 v 0 -1.74 L 18,31.58 17.71,31.39 v -1.31 l 0.87,0.63 1.8,-2.67 c 0.14,-0.24 0.38,-0.24 0.63,-0.15 0.29,0.25 0.34,0.49 0.19,0.68 l -1.79,2.69 1.94,1.31 a 0.51,0.51 0 0 1 0.09,0.68 c -0.24,0.24 -0.43,0.34 -0.68,0.19 l -1.94,-1.31 -1.11,1.65 z m 0,-3.83 v 0 -1.75 l 0.87,-1.31 a 0.47,0.47 0 0 1 0.68,-0.14 0.49,0.49 0 0 1 0.15,0.68 z m -5.63,-3.59 0.49,0.34 2.86,-4.17 c 0.19,-0.24 0.39,-0.24 0.68,-0.1 0.29,0.14 0.34,0.44 0.19,0.68 l -2.81,4.22 0.87,0.58 2.23,-3.34 a 0.9,0.9 0 0 1 1.12,-0.49 v 1.2 c -0.2,-0.1 -0.34,-0.05 -0.49,0.19 l -4.65,6.94 c -0.15,0.19 -0.15,0.38 0.14,0.53 l 5,3.39 v 1.22 L 11.89,33.65 C 11.16,33.21 11.06,32.72 11.55,32.09 L 13.73,28.84 12.86,28.26 10,32.48 A 0.5,0.5 0 0 1 9.27,32.58 0.42,0.42 0 0 1 9.12,31.9 l 2.82,-4.22 -0.49,-0.34 a 0.55,0.55 0 0 1 -0.1,-0.78 0.61,0.61 0 0 1 0.73,-0.19 z m 5.63,1.84 v 0 1.75 l -0.1,0.1 h 0.1 v 1.31 l -0.68,-0.44 -1.8,2.67 a 0.49091751,0.49091751 0 0 1 -0.82,-0.54 l 1.07,-1.55 c -0.2,-0.05 -0.59,-0.1 -1.17,-0.19 a 0.42,0.42 0 0 1 -0.39,-0.59 0.53,0.53 0 0 1 0.64,-0.43 9.84,9.84 0 0 1 1,0.19 0.5,0.5 0 0 1 0.39,0.24 l 1,-1.45 c -0.19,-0.29 -0.44,-0.68 -0.78,-1.12 a 0.59,0.59 0 0 0 -0.14,-0.19 0.55,0.55 0 0 1 0,-0.78 q 0.36,-0.28 0.72,0.15 a 4.61,4.61 0 0 1 0.54,0.73 c 0.09,0.14 0.14,0.24 0.24,0.29 l 0.1,-0.2 z m 0,3.84 -1.56,2.37 a 0.43,0.43 0 0 0 0.19,0.63 0.48,0.48 0 0 0 0.68,-0.14 l 0.73,-1.12 v -1.74 z"
     id="path428" />
  <path
     class="cls-3"
     d="m 37.5,16.01 v -1.12 a 21.67,21.67 0 0 1 3.83,1.22 0.53,0.53 0 0 1 0.34,0.72 0.58,0.58 0 0 1 -0.68,0.34 15.72,15.72 0 0 0 -3.49,-1.16 z m 0,-2.23 v 0 -2.23 l 0.53,1 c 0.39,0.53 0.24,0.92 -0.39,1.21 L 37.5,13.81 Z M 36.92,8.25 v 0 a 0.49,0.49 0 0 0 0,-0.63 c 0,0 0,-0.05 0,-0.05 v 0.69 z m 0.58,3.3 -0.58,-1.12 v 2.14 0.14 c 0.15,0.15 0.15,0.29 0,0.39 v 1 l 0.58,-0.34 v -2.23 z m 0,3.34 v 0 a 0.51,0.51 0 0 0 -0.53,0.15 v 0.78 a 2.4,2.4 0 0 0 0.28,0.14 c 0.1,0 0.2,0.05 0.3,0.05 V 14.89 Z M 36.82,8.3 32.6,10.58 V 9.41 l 3.78,-2 c 0.24,-0.1 0.39,0 0.54,0.19 v 0.66 a 0.22,0.22 0 0 1 -0.1,0 z m 0.1,2.13 v 0 2.14 l -0.77,-1.31 c -0.1,-0.2 -0.25,-0.29 -0.39,-0.2 l -3.2,1.75 v -1.07 l 3,-1.65 a 0.81,0.81 0 0 1 1.31,0.39 z m 0,2.67 v 0 1 l -2,1.11 1.6,3 c 0.82,1.21 0.1,2.09 -2.14,2.57 -0.29,0.05 -0.48,-0.1 -0.53,-0.43 a 0.47,0.47 0 0 1 0.34,-0.59 c 1.31,-0.24 1.79,-0.63 1.36,-1.06 l -1.55,-3 -1.36,0.73 v -1 L 36.9,13.1 Z m 0,1.94 v 0 0.78 a 0.79,0.79 0 0 1 -0.15,-0.54 0.76,0.76 0 0 1 0.15,-0.24 z m -4.32,4.7 c 0.19,-0.53 0.34,-1.06 0.48,-1.6 a 0.49,0.49 0 0 0 -0.43,-0.63 v 0 2.23 z m 0,-10.33 v 0 L 31.77,9.9 C 31.68,9.8 31.43,9.61 31.14,9.36 a 2.92,2.92 0 0 1 -0.34,-0.24 0.51,0.51 0 0 0 -0.77,0.1 0.46,0.46 0 0 0 0.14,0.73 2.62,2.62 0 0 0 0.59,0.48 l -4.42,2.43 C 26.05,13 26,13.2 26.1,13.54 a 0.5,0.5 0 0 0 0.72,0.19 l 5.78,-3.15 z m 0,2.28 -3.88,2.14 c -0.59,0.19 -0.73,0.58 -0.39,1.11 l 1.07,2 a 1,1 0 0 0 1.5,0.49 l 1.7,-1 v -1 l -1.89,1 c -0.2,0.14 -0.39,0.14 -0.44,-0.1 l -0.78,-1.46 c -0.14,-0.24 -0.09,-0.43 0.15,-0.53 l 3,-1.6 v -1.07 z m 0,5.82 v 0 c -0.29,-0.05 -0.49,0.15 -0.58,0.44 a 10.79,10.79 0 0 1 -1.46,3.64 0.48,0.48 0 0 0 0.2,0.68 0.55,0.55 0 0 0 0.72,-0.2 12.1,12.1 0 0 0 1.12,-2.33 z"
     id="path430" />
  <path
     class="cls-3"
     d="m 53.99,4.85 c 0,-0.29 -0.15,-0.43 -0.44,-0.48 -0.29,-0.05 -0.53,0.19 -0.53,0.48 v 5.58 a 7.15,7.15 0 0 1 -0.49,3.06 3.52,3.52 0 0 1 -1.4,1.55 v 1.22 c 0,-0.05 0.09,-0.05 0.14,-0.09 a 5.73,5.73 0 0 0 2.18,-2.14 9.44,9.44 0 0 0 0.54,-3.59 V 4.86 Z m -2.84,8.64 v 0 -8.15 c 0.29,0 0.43,0.19 0.43,0.48 v 7.13 c 0,0.34 -0.14,0.54 -0.43,0.54 z M 61.72,5.92 v 0 c 0.29,0 0.44,-0.19 0.48,-0.48 0.04,-0.29 -0.19,-0.49 -0.48,-0.49 h -6.64 c -0.35,0 -0.49,0.15 -0.54,0.49 a 0.5,0.5 0 0 0 0.54,0.48 h 2.57 v 1.5 h -1.6 a 0.72,0.72 0 0 0 -0.73,0.73 v 6.36 a 0.45,0.45 0 0 0 0.48,0.48 0.5,0.5 0 0 0 0.49,-0.53 V 8.78 c 0,-0.24 0.09,-0.39 0.24,-0.39 h 1.12 v 7.67 c 0,0.29 0.19,0.39 0.48,0.39 0.29,0 0.53,-0.1 0.53,-0.39 V 8.39 h 1.49 c 0.19,0 0.34,0.2 0.34,0.49 v 4.85 c 0,0.39 -0.29,0.53 -1,0.44 -0.29,0 -0.49,0 -0.54,0.34 -0.05,0.34 0.15,0.53 0.44,0.53 1.36,0.19 2,-0.19 2,-1.21 V 8.35 c 0,-0.54 -0.24,-0.88 -0.73,-0.93 h -2 v -1.5 z m -10.57,9.12 v 1.22 a 0.57,0.57 0 0 1 -0.68,-0.14 c -0.2,-0.29 -0.1,-0.54 0.24,-0.78 l 0.44,-0.29 z m 0,-9.7 v 0 8.15 c -0.34,0 -0.49,-0.2 -0.49,-0.54 V 5.82 a 0.44,0.44 0 0 1 0.49,-0.48 z"
     id="path432" />
  <path
     class="cls-3"
     d="m 75.33,7.42 v 1.36 a 5.54,5.54 0 0 1 0.72,0.73 0.4,0.4 0 0 0 0.64,-0.05 0.59,0.59 0 0 0 0,-0.77 7.58,7.58 0 0 0 -1.36,-1.27 z m 0,7.86 v 0 -1.6 l 1,-1.45 c 0.19,-0.34 0.39,-0.39 0.63,-0.2 a 0.6,0.6 0 0 1 0.14,0.78 10.68,10.68 0 0 1 -1.79,2.47 z m 0,-3.68 v 0 -1.34 a 0.8,0.8 0 0 1 0.24,0.19 3.05,3.05 0 0 0 0.24,0.19 0.65,0.65 0 0 1 0.2,0.83 0.5,0.5 0 0 1 -0.68,0.15 z m 0,-5.19 v 0 -1 h 1.31 V 4.73 c 0,-0.25 0.14,-0.39 0.43,-0.39 0.29,0 0.49,0.14 0.49,0.39 V 5.41 H 81 V 4.92 a 0.44,0.44 0 0 1 0.44,-0.48 c 0.34,0 0.48,0.19 0.48,0.48 v 0.49 h 2.38 a 0.44,0.44 0 0 1 0.49,0.48 0.47,0.47 0 0 1 -0.49,0.49 h -2.38 v 0.58 c 0,0.29 -0.14,0.39 -0.48,0.39 C 81.1,7.35 81,7.25 81,6.96 V 6.38 h -3.44 v 0.68 c 0,0.29 -0.15,0.38 -0.49,0.38 -0.34,0 -0.43,-0.09 -0.43,-0.38 V 6.38 Z m 3.39,1.6 v 0 C 78.09,7.96 77.8,8.3 77.8,9.01 v 5.57 c -0.05,1.12 0.49,1.65 1.56,1.6 h 3.39 c 1.5,0.05 2.18,-0.72 2,-2.23 a 0.5,0.5 0 0 0 -0.49,-0.53 c -0.29,0 -0.43,0.14 -0.43,0.48 0.09,0.88 -0.54,1.31 -1.85,1.26 H 79.56 A 0.72,0.72 0 0 1 78.68,14.34 V 9.49 c 0,-0.34 0.15,-0.48 0.44,-0.48 h 3.35 c 0.29,0 0.39,0.14 0.39,0.48 v 1.94 c 0.09,0.78 -0.59,0.92 -1.95,0.44 a 0.45,0.45 0 0 0 -0.58,0.38 0.5,0.5 0 0 0 0.39,0.59 c 2,0.72 3,0.34 3.06,-1.17 V 9.01 c 0,-0.73 -0.29,-1.07 -1,-1 z M 75.33,7.42 V 8.78 C 75.13,8.59 74.94,8.44 74.75,8.25 a 0.43,0.43 0 0 1 0,-0.68 0.44,0.44 0 0 1 0.63,-0.15 z m 0,-2 h -1.07 c -0.29,0 -0.44,0.14 -0.48,0.48 -0.04,0.34 0.14,0.49 0.43,0.49 h 1.12 v -1 z m 0,4.8 v 0 1.36 c -0.05,0 -0.05,-0.05 -0.1,-0.05 A 2.94,2.94 0 0 0 74.55,10.95 2.43,2.43 0 0 1 74.02,10.6 0.6,0.6 0 0 1 73.87,9.83 c 0.2,-0.29 0.44,-0.39 0.68,-0.19 a 4,4 0 0 1 0.78,0.58 z m 0,3.44 a 12.37,12.37 0 0 1 -1.31,1.41 0.55,0.55 0 0 0 -0.1,0.77 0.5,0.5 0 0 0 0.78,0 c 0.19,-0.19 0.43,-0.38 0.63,-0.58 z"
     id="path434" />
  <path
     class="cls-3"
     d="m 104.62,10.97 a 0.55,0.55 0 0 0 -0.24,-0.73 0.51,0.51 0 0 0 -0.73,0.19 l -1,1.75 L 98.58,9.9 C 98.19,9.75 97.95,9.8 97.76,10.04 a 0.6,0.6 0 0 0 0.29,0.78 l 4,2.23 a 8.5,8.5 0 0 1 -7.76,3.54 0.58,0.58 0 0 0 -0.63,0.58 c 0,0.39 0.24,0.59 0.68,0.59 a 9.56,9.56 0 0 0 7.76,-3.21 13,13 0 0 0 1.41,8 0.66,0.66 0 0 0 0.82,0.34 c 0.29,-0.2 0.34,-0.44 0.15,-0.83 a 13.29,13.29 0 0 1 -1.26,-8.39 l 4.26,2.38 a 0.52,0.52 0 0 0 0.68,-0.24 0.51,0.51 0 0 0 -0.14,-0.64 L 103.6,12.7 Z"
     id="path436" />
  <path
     class="cls-3"
     d="m 122.76,31.97 a 5.62,5.62 0 0 0 2.86,0 0.43,0.43 0 0 0 0.39,-0.54 0.46,0.46 0 0 0 -0.58,-0.34 7,7 0 0 1 -2.28,0 0.51,0.51 0 0 0 -0.58,0.58 l -0.34,-0.48 v 1.65 l 0.39,0.58 c 0.24,0.24 0.24,0.44 0,0.53 a 1.1,1.1 0 0 1 -0.39,0.15 v 1 a 7.78,7.78 0 0 0 1,-0.29 0.18,0.18 0 0 0 0.15,-0.05 c 0.77,-0.34 0.92,-0.83 0.38,-1.46 l -1,-1.4 z m -0.53,-2.77 v 0 -1.79 c 0,-0.1 0.1,-0.15 0.1,-0.2 a 0.43156691,0.43156691 0 1 1 0.77,0.39 c -0.34,0.68 -0.63,1.21 -0.87,1.6 z m 0,2 v 1.65 l -2.28,-3.25 v -1.7 z m 0,2.91 v 1 c -0.14,0 -0.24,0.05 -0.34,0.05 -0.34,0 -0.48,-0.1 -0.53,-0.39 a 0.4,0.4 0 0 1 0.29,-0.58 1.73,1.73 0 0 0 0.58,-0.1 z m 0,-6.74 c 0,0 -0.05,0 -0.05,0.09 a 7,7 0 0 1 -0.77,1.31 0.5,0.5 0 0 0 0.05,0.68 0.46,0.46 0 0 0 0.63,-0.09 0.54,0.54 0 0 1 0.14,-0.2 z m -2.28,9.46 v 0 -1.07 l 0.19,0.29 a 0.52,0.52 0 0 1 0,0.73 0.18,0.18 0 0 1 -0.15,0.05 z m 0,-3.35 a 0.77,0.77 0 0 0 0.87,-0.1 q 0.38,-0.36 0,-0.87 l -0.87,-1.25 v 2.23 z m 0,-6.7 v 0 -2.95 c 0,-0.05 0.1,-0.05 0.19,-0.05 a 0.46,0.46 0 0 1 0.44,0.53 7.93,7.93 0 0 1 -0.39,2.09 0.72,0.72 0 0 1 -0.24,0.38 z m 0,1.12 v 0 l -1.74,-2.42 c -0.39,-0.68 -0.83,-0.88 -1.22,-0.49 l -1,0.68 a 0.45,0.45 0 0 0 -0.09,0.63 0.43,0.43 0 0 0 0.63,0.1 l 0.58,-0.39 c 0.19,-0.15 0.34,-0.15 0.44,0.1 l 2.42,3.49 v -1.7 z m 0,-4.07 a 0.41,0.41 0 0 0 -0.24,0.43 c -0.2,1 -0.29,1.6 -0.39,1.94 -0.1,0.34 0.05,0.54 0.29,0.63 a 0.39,0.39 0 0 0 0.34,-0.05 z m 0,7.42 -2.62,-3.74 c -0.19,-0.24 -0.44,-0.34 -0.68,-0.14 -0.24,0.2 -0.24,0.43 -0.05,0.73 l 2.82,4 a 0.18,0.18 0 0 1 0,0.15 0.09,0.09 0 0 1 -0.15,0 10.12,10.12 0 0 1 -2.08,-1.12 0.38,0.38 0 0 0 -0.54,0 l -2.71,-3.88 a 0.45,0.45 0 0 0 -0.68,-0.14 c -0.25,0.19 -0.25,0.43 0,0.72 l 3.15,4.56 c -0.29,1.26 -0.82,1.89 -1.65,1.75 -0.83,-0.14 -1.26,-1.12 -1.6,-2.57 a 0.56,0.56 0 0 0 -0.53,-0.44 0.58,0.58 0 0 0 -0.44,0.58 5.47,5.47 0 0 0 0.78,2.09 2.91,2.91 0 0 0 1.4,1.31 c 1.17,0.34 2.09,-0.24 2.77,-1.7 l 2.23,3.2 a 0.47,0.47 0 0 0 0.58,0.2 v -1.07 l -2.33,-3.3 a 8.47,8.47 0 0 0 2.19,1 0.16,0.16 0 0 0 0.14,0 v -2.18 z"
     id="path438" />
  <polygon
     class="cls-1"
     points="57.23,107.92 57.23,101.95 60.34,101.95 60.34,112.72 57.23,112.72 53.26,106.8 53.26,112.72 50.15,112.72 50.15,101.95 53.26,101.95 "
     id="polygon440" />
  <polygon
     class="cls-1"
     points="69.84,107.92 69.84,101.95 72.95,101.95 72.95,112.72 69.84,112.72 65.87,106.8 65.87,112.72 62.76,112.72 62.76,101.95 65.87,101.95 "
     id="polygon442" />
  <path
     class="cls-1"
     d="m 82.26,101.96 h 3.3 v 6.4 a 5.17,5.17 0 0 1 -0.29,1.79 3.63,3.63 0 0 1 -0.92,1.51 3.56,3.56 0 0 1 -1.31,0.87 6.76,6.76 0 0 1 -2.33,0.39 10.47,10.47 0 0 1 -1.69,-0.15 3.58,3.58 0 0 1 -1.56,-0.44 3.12,3.12 0 0 1 -1.11,-0.92 2.79,2.79 0 0 1 -0.68,-1.21 5.6,5.6 0 0 1 -0.34,-1.84 v -6.4 h 3.3 v 6.55 a 1.84,1.84 0 0 0 0.48,1.4 1.8,1.8 0 0 0 1.36,0.48 1.69,1.69 0 0 0 1.31,-0.48 1.84,1.84 0 0 0 0.48,-1.4 z"
     id="path444" />
  <path
     class="cls-1"
     d="m 77.85,29.44 c -4.36,1.65 -6.5,5.49 -6,8.93 -0.59,0.34 -1.22,0.73 -1.8,1.11 a 19.56,19.56 0 0 0 -2.62,2.24 22.73,22.73 0 0 0 -2.66,-2.24 c -0.59,-0.38 -1.22,-0.77 -1.85,-1.11 0.49,-3.44 -1.6,-7.28 -6,-8.93 -1.65,-0.67 -0.15,2.24 1.31,4.22 1.3,1.75 2.42,2.58 2.66,3.11 a 1,1 0 0 1 0.15,0.73 15.85,15.85 0 0 0 -4.76,-1 2.9,2.9 0 0 1 0,-0.68 c 0,-2.82 -4.6,-5.34 -7.27,-4.8 -1.84,0.39 0.77,2.81 2.91,3.63 1.41,0.59 2.52,1.07 2.42,1.8 a 19.1,19.1 0 0 0 -5.57,1.16 1.34,1.34 0 0 0 -0.1,-0.43 c -0.54,-2.23 -3,-3 -5.14,-3.06 -2.43,-0.1 -4.37,0.73 -2.86,2.14 1.51,1.41 4.12,1.45 5.48,1.16 0.24,0 0.82,0.1 0.92,0.44 a 0.62,0.62 0 0 1 0,0.43 c -0.68,0.29 -1.36,0.68 -2,1 -0.87,0.49 -1.7,1 -2.57,1.6 -1.55,-1.84 -4.22,-2.42 -7.27,-1.31 -3.3,1.17 -1.31,2.81 1.59,2.67 1.8,-0.1 3.11,-0.29 3.79,0.1 a 38.23,38.23 0 0 0 -3.25,3 c -1.36,-1.16 -3.54,-0.92 -5,-0.48 -3.3,0.92 -5.24,3.93 -1.36,3.25 1.89,-0.29 3.54,-1.07 4.51,-0.73 -0.44,0.53 -0.83,1.07 -1.26,1.6 -1.17,0.2 -3.59,1.89 -4.95,5 -1,2.18 -1.31,4 -0.82,4.51 0.33,0.34 1.11,-0.19 2.86,-1.65 4,-3.25 4,-7 3.54,-7.71 0.39,-0.49 0.77,-0.92 1.16,-1.41 a 2.28,2.28 0 0 1 0.34,0.68 c 0.58,2 0.44,6.89 1.7,5.73 1.26,-1.16 1.7,-6 -0.29,-8.35 1.06,-1.07 2.18,-2.08 3.3,-3 a 1.75,1.75 0 0 1 0.19,1.07 c -0.14,4 0.14,6 0.78,6.21 1.21,0.34 3.15,-5.24 0.82,-8.63 a 19.73,19.73 0 0 1 2.52,-1.56 c 0.54,-0.34 1.07,-0.58 1.6,-0.87 -0.34,1.17 -1.06,2.67 -1.16,3.25 -0.15,0.73 -0.24,4.61 1.36,3.15 1.26,-1.16 2,-4.6 1.74,-7.17 a 18,18 0 0 1 5.14,-1.12 3.07,3.07 0 0 1 -0.82,0.68 c -2.28,1.65 -2.81,6.21 -1.7,5.87 1.11,-0.34 4,-3.25 4.66,-6.6 a 15.66,15.66 0 0 1 4.61,1 1.11,1.11 0 0 1 -0.39,0.24 c -4.08,2 -5.58,6.31 -4.75,6.26 2.32,-0.2 6.3,-3 7.13,-5.58 a 15.21,15.21 0 0 1 1.6,1 21.7,21.7 0 0 1 2.61,2.18 c -0.29,0.29 -0.58,0.58 -0.87,0.92 L 64.37,42.8 c 0,0 -2.82,3.4 -3,4.32 l 1.6,0.24 -0.63,1.17 0.53,0.29 a 30,30 0 0 1 4.51,-6.26 31,31 0 0 1 4.46,6.26 l 0.54,-0.29 -0.63,-1.17 1.6,-0.24 c -0.15,-0.92 -3,-4.32 -3,-4.32 l -1.79,0.29 c -0.3,-0.34 -0.59,-0.63 -0.88,-0.92 a 27.35,27.35 0 0 1 2.57,-2.18 c 0.59,-0.39 1.12,-0.73 1.65,-1 0.83,2.62 4.8,5.38 7.13,5.58 0.83,0 -0.68,-4.27 -4.75,-6.26 a 1,1 0 0 1 -0.39,-0.24 15.59,15.59 0 0 1 4.61,-1 c 0.68,3.35 3.68,6.26 4.66,6.6 0.98,0.34 0.58,-4.22 -1.7,-5.87 a 5.32,5.32 0 0 1 -0.88,-0.68 17.8,17.8 0 0 1 5.19,1.12 c -0.24,2.57 0.49,6 1.75,7.17 1.6,1.46 1.5,-2.42 1.36,-3.15 -0.1,-0.58 -0.83,-2.08 -1.17,-3.25 0.54,0.29 1.07,0.53 1.6,0.87 a 19.16,19.16 0 0 1 2.53,1.56 c -2.33,3.39 -0.39,9 0.82,8.63 0.63,-0.19 0.92,-2.23 0.78,-6.21 a 1.75,1.75 0 0 1 0.19,-1.07 c 1.12,0.93 2.23,1.94 3.3,3 -2,2.33 -1.51,7.23 -0.29,8.35 1.22,1.12 1.11,-3.74 1.7,-5.73 a 2.06,2.06 0 0 1 0.34,-0.68 c 0.38,0.49 0.77,0.92 1.16,1.41 -0.48,0.73 -0.44,4.46 3.54,7.71 1.75,1.46 2.47,2 2.86,1.65 0.49,-0.49 0.15,-2.33 -0.82,-4.51 -1.36,-3.06 -3.79,-4.75 -4.95,-5 l -1.31,-1.6 c 1,-0.34 2.67,0.44 4.56,0.73 3.88,0.68 1.94,-2.33 -1.36,-3.25 -1.5,-0.44 -3.68,-0.68 -5,0.48 a 39.81,39.81 0 0 0 -3.25,-3 c 0.68,-0.39 2,-0.2 3.78,-0.1 2.91,0.14 4.9,-1.5 1.6,-2.67 -3.1,-1.11 -5.72,-0.53 -7.28,1.31 -0.87,-0.58 -1.69,-1.11 -2.57,-1.6 -0.67,-0.34 -1.35,-0.73 -2,-1 a 0.62,0.62 0 0 1 0,-0.43 c 0.1,-0.34 0.68,-0.49 0.92,-0.44 1.36,0.29 4.07,0.19 5.48,-1.16 1.41,-1.35 -0.43,-2.24 -2.86,-2.14 -2.13,0.1 -4.61,0.83 -5.14,3.06 a 1.34,1.34 0 0 0 -0.1,0.43 19.1,19.1 0 0 0 -5.58,-1.16 c -0.09,-0.73 1,-1.21 2.43,-1.8 2.13,-0.82 4.75,-3.24 2.91,-3.63 -2.67,-0.54 -7.28,2 -7.28,4.8 0,0.19 0.05,0.44 0.05,0.68 a 15.85,15.85 0 0 0 -4.75,1 1.06,1.06 0 0 1 0.14,-0.73 c 0.25,-0.53 1.36,-1.36 2.62,-3.11 1.47,-1.98 3.02,-4.89 1.37,-4.22 z"
     id="path446" />
</svg>
