<?xml version="1.0" standalone="no"?><!DOCTYPE svg PUBLIC "-//W3C//DTD SVG 1.1//EN" "http://www.w3.org/Graphics/SVG/1.1/DTD/svg11.dtd"><svg t="1632440442757" class="icon" viewBox="0 0 1024 1024" version="1.1" xmlns="http://www.w3.org/2000/svg" p-id="5563" xmlns:xlink="http://www.w3.org/1999/xlink" width="200" height="200"><defs><style type="text/css"></style></defs><path d="M629.529003 402.593951h-83.260287V217.289043c0-21.322757-17.261279-38.584036-38.584036-38.584036s-38.584036 17.261279-38.584035 38.584036v185.304908H385.840357c-14.722856 0-22.338126 17.768964-12.184432 28.430343l121.844323 170.074367c6.599901 6.599901 17.261279 6.599901 23.86118 0l121.844323-170.074367c10.661378-10.661378 3.046108-28.430342-11.676748-28.430343z" p-id="5564"></path><path d="M901.647992 0H113.721368C50.768468 0 0 50.768468 0 113.213684v555.40704c0 62.445216 50.768468 113.721368 113.721368 113.721368h342.68716v139.105603H301.5647c-28.430342 0-51.276153 22.845811-51.276153 51.276152s22.845811 51.276153 51.276153 51.276153h411.732276c28.430342 0 51.276153-22.845811 51.276152-51.276153s-22.845811-51.276153-51.276152-51.276152h-154.336143v-139.105603h342.687159c62.445216 0 113.721368-50.768468 113.721368-113.721368V113.213684C1015.36936 50.768468 964.600892 0 901.647992 0z m10.661378 669.128409c0 5.584531-4.569162 10.661378-10.661378 10.661378H113.721368c-5.584531 0-10.661378-4.569162-10.661378-10.661378V113.213684c0-5.584531 4.569162-10.661378 10.661378-10.661379h788.434309c5.584531 0 10.661378 4.569162 10.661378 10.661379v555.914725z" p-id="5565"></path></svg>