<?xml version="1.0" standalone="no"?><!DOCTYPE svg PUBLIC "-//W3C//DTD SVG 1.1//EN" "http://www.w3.org/Graphics/SVG/1.1/DTD/svg11.dtd"><svg t="1632440408491" class="icon" viewBox="0 0 1024 1024" version="1.1" xmlns="http://www.w3.org/2000/svg" p-id="4690" xmlns:xlink="http://www.w3.org/1999/xlink" width="200" height="200"><defs><style type="text/css"></style></defs><path d="M343.148833 1024a202.699487 202.699487 0 0 1-149.110154-66.166154l-1.155282-1.31282a243.659487 243.659487 0 0 1 0-325.054359l15.36-16.804103a37.100308 37.100308 0 0 1 27.700513-12.603077 40.461128 40.461128 0 0 1 9.714872 1.312821 40.014769 40.014769 0 0 1 27.437948 29.669743 44.032 44.032 0 0 1-10.502564 40.434872l-15.412513 16.804103a155.201641 155.201641 0 0 0-35.131077 141.784615 141.784615 141.784615 0 0 0 95.940923 103.712821 122.696205 122.696205 0 0 0 35.131077 4.988717 130.231795 130.231795 0 0 0 95.940923-42.797948l184.608821-200.073846a156.041846 156.041846 0 0 0 32.085333-152.28718 139.158974 139.158974 0 0 0-112.902564-97.411282 36.758974 36.758974 0 0 1-25.783795-15.228718 43.506872 43.506872 0 0 1-8.192-30.457436 39.384615 39.384615 0 0 1 38.124308-37.021538 23.446974 23.446974 0 0 1 4.279795 0.262564 203.250872 203.250872 0 0 1 108.859077 48.574359 228.430769 228.430769 0 0 1 68.266667 103.71282 247.913026 247.913026 0 0 1 6.695384 127.34359 233.682051 233.682051 0 0 1-56.923897 111.32718l-184.661334 199.811282A202.909538 202.909538 0 0 1 343.148833 1024z m153.678769-366.276923a205.850256 205.850256 0 0 1-150.107897-67.478974 243.659487 243.659487 0 0 1 0-325.054359l184.661333-199.811282a200.992821 200.992821 0 0 1 298.587897 2.100512 243.34441 243.34441 0 0 1 1.864206 322.953847l-15.307488 16.804102a36.260103 36.260103 0 0 1-53.799384-0.787692 44.268308 44.268308 0 0 1-0.472616-58.289231l15.36-16.541538a155.464205 155.464205 0 0 0 35.945026-142.309744 142.546051 142.546051 0 0 0-96.413538-104.237949 129.417846 129.417846 0 0 0-34.710975-4.726154 131.675897 131.675897 0 0 0-96.728615 43.848206l-184.661334 199.548717a156.803282 156.803282 0 0 0-27.726769 164.365129 135.719385 135.719385 0 0 0 123.588923 86.383589c2.861949 0 5.750154 0 8.612103-0.262564 0.997744 0 1.969231-0.262564 2.914461-0.262564a37.861744 37.861744 0 0 1 31.927795 18.642051 44.452103 44.452103 0 0 1 2.41559 41.747693 38.518154 38.518154 0 0 1-32.426667 22.843077c-4.542359 0.262564-9.058462 0.525128-13.522051 0.525128z" p-id="4691"></path></svg>