<?xml version="1.0" standalone="no"?>
<!DOCTYPE svg PUBLIC "-//W3C//DTD SVG 1.1//EN" "http://www.w3.org/Graphics/SVG/1.1/DTD/svg11.dtd">
<svg class="icon"
  width="200px" height="200.00px" viewBox="0 0 1024 1024" version="1.1" xmlns="http://www.w3.org/2000/svg">
  <path fill="#333333"
    d="M839.968 511.968a325.632 325.632 0 0 0-96.064-231.936A325.6 325.6 0 0 0 512 184a325.728 325.728 0 0 0-231.936 96.064A325.856 325.856 0 0 0 184 512c0 87.552 34.08 169.984 96.064 231.936a326.08 326.08 0 0 0 231.968 96.032c63.776 0 124.736-18.304 177.152-52.096 27.648 23.36 68.928 22.304 94.976-3.712a70.176 70.176 0 0 0 3.744-95.04 325.344 325.344 0 0 0 52.064-177.152zM314.016 709.952A278.112 278.112 0 0 1 232 512a278.08 278.08 0 0 1 81.984-198.016A278.304 278.304 0 0 1 512 231.968c74.752 0 145.056 29.12 197.952 82.016a278.304 278.304 0 0 1 82.048 197.984 278.336 278.336 0 0 1-45.664 153.184 70.08 70.08 0 0 0-81.248 81.216A277.824 277.824 0 0 1 512 792a278.304 278.304 0 0 1-197.984-82.048z" />
</svg>
