<?xml version="1.0" standalone="no"?>
<!DOCTYPE svg PUBLIC "-//W3C//DTD SVG 1.1//EN" "http://www.w3.org/Graphics/SVG/1.1/DTD/svg11.dtd">
<svg t="1631860329652" class="icon" viewBox="0 0 1024 1024" version="1.1" xmlns="http://www.w3.org/2000/svg" p-id="3993"
  xmlns:xlink="http://www.w3.org/1999/xlink" width="200" height="200">
  <defs>
    <style type="text/css"></style>
  </defs>
  <path
    d="M856.978827 551.812629a922.373868 922.373868 0 0 0-12.40747-9.721317l-15.221535-11.703953-81.03229-62.03735a3806.215227 3806.215227 0 0 0-30.507027-23.088127l-30.954718-23.471863-43.106365-33.129223-37.222409-28.52439-42.978453-32.809443-38.82131-29.611642-64.467678-49.3101-139.36019-106.678658c-23.024171-17.523952-46.048342-35.175817-69.072513-52.827681l-59.670976-45.856474-13.238898-9.913184-29.995379-22.768347-14.070326-9.657361v548.295047c1.854725 22.704391 2.750109 92.032727 2.110549 301.936419v11.895822a18.163513 18.163513 0 0 0 13.878458 18.611205l2.366373 0.511648c6.395603 0 12.599338-1.470989 17.715821-8.37824a296.11642 296.11642 0 0 1 17.843732-21.74505l6.139779-6.971208c2.366373-2.750109 4.732746-5.500219 7.227032-8.122416a1021.377803 1021.377803 0 0 1 89.794266-83.078883 665.654363 665.654363 0 0 1 79.561302-56.473174c11.512085 21.361314 21.617138 43.618013 31.722191 65.810755 4.34901 9.721317 8.889888 19.506589 13.36681 29.355818 8.634064 18.611205 17.07626 37.350322 25.326588 56.089438 7.73868 17.140216 15.605271 34.728124 23.727687 52.060209 3.261758 6.843295 6.395603 13.878459 9.33758 20.721753 6.331647 14.645931 12.855162 29.611642 21.169447 44.001749 13.302854 23.216039 34.15252 40.228343 61.909437 50.58922 4.02923 1.470989 8.250328 3.005933 12.72725 4.093186l0.63956 4.093186h57.432515l0.575605-4.476922a121.772282 121.772282 0 0 0 89.602398-97.532946 116.016239 116.016239 0 0 0-16.628568-82.183499c-11.76791-18.994941-23.471863-38.117794-35.047905-57.176691-6.203735-10.232965-12.40747-20.593842-18.67516-30.762851l-25.710325-42.083068-29.867466-48.734495-21.041534-34.728124-5.436262-9.0178c22.704391-5.244394 45.728562-9.721317 68.816688-13.366811 12.983074-1.982637 26.477797-3.645494 39.588783-5.244394 7.099119-0.895384 14.262195-1.726813 21.361314-2.750109 6.267691-0.767472 12.471426-1.215165 19.250765-1.726813 6.267691-0.383736 12.72725-0.895384 19.378677-1.598901 15.477359-1.854725 31.594279-2.878021 47.199551-3.773406 17.651864-1.023296 37.734058-1.982637 56.856911-1.215164 6.395603 0.127912 12.343514-0.383736 17.971644-1.854725l32.105927-8.889888-32.169883-25.070764z m-89.858222 1.854725h-0.831429c-15.797139 0.895384-32.041971 1.854725-48.286803 3.901318-5.756043 0.63956-11.512085 1.151209-17.268128 1.534944-6.715383 0.511648-13.68659 0.895384-20.721754 1.854725l-20.593841 2.622197a961.706827 961.706827 0 0 0-127.016676 23.343951c-8.634064 2.110549-12.343514 7.354943-14.006371 11.384174s-2.622197 10.232965 1.982637 17.971644l14.390107 23.983512 20.657798 34.216476c9.657361 16.11692 19.442633 31.978015 29.099993 47.967022l25.13472 41.315596c6.075823 10.105053 12.215602 20.14615 18.227469 30.251202 11.448129 18.867029 22.768347 37.734058 34.344388 56.601087 11.320217 18.355381 15.157579 37.478234 11.76791 58.199988a87.491849 87.491849 0 0 1-70.543502 71.183061 21.42527 21.42527 0 0 0-5.883955 1.726813h-14.390106a23.152083 23.152083 0 0 0-7.482856-1.982637 60.118668 60.118668 0 0 1-14.837799-4.02923c-20.018237-7.610768-34.15252-19.122853-43.426144-35.367685-7.227031-12.471426-12.983074-25.838236-19.122853-39.972518a630.542502 630.542502 0 0 0-9.465493-21.233402 2962.315408 2962.315408 0 0 1-22.896259-50.845045l-12.023733-26.861532c-4.221098-9.465492-8.634064-18.994941-12.919119-28.460434-4.285054-9.593405-8.69802-19.122853-13.04703-28.716257-11.639998-25.966148-23.216039-51.868341-34.728124-77.962401-5.244394-11.895822-14.709887-13.110986-18.611205-13.110986-6.011867 0-10.616701 3.005933-12.151646 3.901318-4.221098 2.750109-8.506152 5.244394-12.599338 7.866591a665.846231 665.846231 0 0 0-81.607894 58.3279c-16.244832 13.622634-34.983949 29.611642-52.827681 46.687902-12.791206 12.215602-25.326588 24.878896-37.606146 37.734058a259.021922 259.021922 0 0 0-6.715383 7.610767c0.063956-37.094498 0.127912-93.951408 0-147.034913-0.127912-39.588783-0.255824-70.927238-0.63956-93.183936a1209.92018 1209.92018 0 0 0-0.639561-29.867466 86.468553 86.468553 0 0 0-0.95934-12.023734V73.165699l1.598901 1.215164c19.826369 15.413403 39.716695 30.890763 59.670976 46.24021 22.448567 17.39604 44.961089 34.728124 67.473612 51.996253l135.906564 104.887889 63.060646 48.606583 37.86197 29.16395 41.891199 32.233839 36.26307 28.012741 42.147023 32.617576c10.041097 7.73868 20.210106 15.477359 30.443071 23.216039l29.611642 22.640434c25.262632 19.506589 50.461308 38.949222 75.72394 58.583724-7.994504 0.255824-15.989008 0.63956-23.407907 1.087253z"
    p-id="3994">
  </path>
</svg>
