<?xml version="1.0" standalone="no"?><!DOCTYPE svg PUBLIC "-//W3C//DTD SVG 1.1//EN" "http://www.w3.org/Graphics/SVG/1.1/DTD/svg11.dtd"><svg class="icon" width="200px" height="200.00px" viewBox="0 0 1024 1024" version="1.1" xmlns="http://www.w3.org/2000/svg"><path fill="#333333" d="M256 384h341.333333v85.333333H256z"  /><path fill="#333333" d="M426.666667 768a339.285333 339.285333 0 0 0 208.938666-72.021333l187.562667 187.562666 60.330667-60.330666-187.562667-187.562667A339.285333 339.285333 0 0 0 768 426.666667c0-188.202667-153.130667-341.333333-341.333333-341.333334s-341.333333 153.130667-341.333334 341.333334 153.130667 341.333333 341.333334 341.333333z m0-597.333333c141.184 0 256 114.816 256 256s-114.816 256-256 256-256-114.816-256-256 114.816-256 256-256z"  /></svg>